# xmcd CD database file
#
# Track frame offsets:
#	150
#	13033
#	22386
#	34591
#	44299
#	56895
#	67503
#	79815
#	91223
#	102878
#	113192
#	126505
#	136594
#	148398
#	159837
#	172561
#	184426
#	194479
#	206782
#	216941
#	228727
#	241627
#	250647
#	263098
#	276880
#	285642
#	294931
#	306687
#	316186
#	327083
#	336861
#	345832
#	354698
#	362964
#	372076
#	382797
#
# Disc length: 5236 seconds
#
# Revision: 0
# Processed by: cddbd v1.5.2PL0 Copyright (c) Steve Scherf et al.
# Submitted via: CDex 1.51
#
DISCID=20147224
DTITLE=The Browns - A Country Music Odyssey
DYEAR=2009
DGENRE=Country
TTITLE0=The Three Bells 
TTITLE1=Heaven Fell Last Night
TTITLE2=I Take The Chance 
TTITLE3=I'm In Heaven 
TTITLE4=Margo (The Ninth Of May) 
TTITLE5=The Old Lamplighter
TTITLE6=I Guess I'm Crazy 
TTITLE7=Would You Care 
TTITLE8=I Heard The Bluebirds Sing
TTITLE9=Looking Back To See
TTITLE10=Here Today And Gone Tomorrow
TTITLE11=Send Me The Pillow You Dream On
TTITLE12=Scarlet Ribbons (For Her Hair)
TTITLE13=I Still Do
TTITLE14=Cool Water
TTITLE15=The Big Blizzard
TTITLE16=Ground Hog
TTITLE17=Down On The Old Plantation
TTITLE18=The Twelfth Of Never
TTITLE19=Forty Shades Of Green
TTITLE20=They Call The Wind Maria
TTITLE21=Buttons And Bows
TTITLE22=Angel's Dolly
TTITLE23=Mommy Please Stay Home With Me
TTITLE24=Sugarfoot Rag
TTITLE25=Rhythm Of The Rain
TTITLE26=Country Boy's Dream
TTITLE27=Where Does The Good Times Go
TTITLE28=If The Whole World Stop Loving
TTITLE29=The Old Master Painter
TTITLE30=When I Stop Dreaming
TTITLE31=When They Ring Those Golden Bells
TTITLE32=Tough Your Sins Be As Scarlet
TTITLE33=Big Daddy 
TTITLE34=You Can't Grow Peaches On A Cherry Tree
TTITLE35=Misty Blue
EXTD=YEAR: 2009
EXTT0=
EXTT1=
EXTT2=
EXTT3=
EXTT4=
EXTT5=
EXTT6=
EXTT7=
EXTT8=
EXTT9=
EXTT10=
EXTT11=
EXTT12=
EXTT13=
EXTT14=
EXTT15=
EXTT16=
EXTT17=
EXTT18=
EXTT19=
EXTT20=
EXTT21=
EXTT22=
EXTT23=
EXTT24=
EXTT25=
EXTT26=
EXTT27=
EXTT28=
EXTT29=
EXTT30=
EXTT31=
EXTT32=
EXTT33=
EXTT34=
EXTT35=
PLAYORDER=
